<?xml version="1.0" encoding="UTF-8" standalone="no"?>
<!-- Created with Inkscape (http://www.inkscape.org/) -->

<svg
   xmlns:dc="http://purl.org/dc/elements/1.1/"
   xmlns:cc="http://creativecommons.org/ns#"
   xmlns:rdf="http://www.w3.org/1999/02/22-rdf-syntax-ns#"
   xmlns:svg="http://www.w3.org/2000/svg"
   xmlns="http://www.w3.org/2000/svg"
   xmlns:sodipodi="http://sodipodi.sourceforge.net/DTD/sodipodi-0.dtd"
   xmlns:inkscape="http://www.inkscape.org/namespaces/inkscape"
   width="297mm"
   height="210mm"
   viewBox="0 0 1052.3622 744.09448"
   id="svg2"
   version="1.1"
   inkscape:version="0.91 r13725"
   sodipodi:docname="JDUtils.svg"
   inkscape:export-filename="D:\my\code\workspace\JDUtils\docs\logo\JDUtils.png"
   inkscape:export-xdpi="40.503586"
   inkscape:export-ydpi="40.503586">
  <defs
     id="defs4" />
  <sodipodi:namedview
     id="base"
     pagecolor="#ffffff"
     bordercolor="#666666"
     borderopacity="1.0"
     inkscape:pageopacity="0.0"
     inkscape:pageshadow="2"
     inkscape:zoom="0.90579894"
     inkscape:cx="491.40517"
     inkscape:cy="343.3433"
     inkscape:document-units="px"
     inkscape:current-layer="g4228"
     showgrid="false"
     showguides="true"
     inkscape:guide-bbox="true"
     inkscape:window-width="1474"
     inkscape:window-height="841"
     inkscape:window-x="54"
     inkscape:window-y="-8"
     inkscape:window-maximized="1" />
  <metadata
     id="metadata7">
    <rdf:RDF>
      <cc:Work
         rdf:about="">
        <dc:format>image/svg+xml</dc:format>
        <dc:type
           rdf:resource="http://purl.org/dc/dcmitype/StillImage" />
        <dc:title />
      </cc:Work>
    </rdf:RDF>
  </metadata>
  <g
     inkscape:label="Livello 1"
     inkscape:groupmode="layer"
     id="layer1"
     transform="translate(0,-308.26772)">
    <g
       id="g4228">
      <g
         id="g4214">
        <path
           style="fill:#549142;fill-opacity:1;fill-rule:evenodd;stroke:#25461c;stroke-width:4;stroke-linecap:butt;stroke-linejoin:miter;stroke-opacity:1;stroke-miterlimit:4;stroke-dasharray:none"
           d="M 271.25781 83.322266 C 233.90353 83.433021 204.20312 86.765625 204.20312 86.765625 C 204.20313 86.765625 207.42912 104.09375 241.71484 124.09375 C 271.82064 141.65547 313.25797 232.08993 334.24023 234.37305 C 313.14167 267.86787 300 301.40442 300 328.38086 C 300.00001 415.95744 446.94235 458.38087 547.14258 458.38086 C 647.34281 458.38086 777.14257 415.95744 777.14258 328.38086 C 777.14258 301.428 764.02324 267.92656 742.95703 234.46094 C 764.15152 230.2884 805.00356 141.66378 834.77539 124.29688 C 869.06111 104.29688 872.28711 86.96875 872.28711 86.96875 C 872.28711 86.96875 666.21083 63.841216 657.00391 137.41602 C 618.29229 105.73523 575.79987 84.09375 538.57227 84.09375 C 501.16175 84.09375 458.43063 105.94351 419.56641 137.87891 C 414.56677 91.651045 332.5967 83.140396 271.25781 83.322266 z "
           transform="translate(0,308.26772)"
           id="path3336" />
        <path
           sodipodi:nodetypes="csscc"
           inkscape:connector-curvature="0"
           id="path4141-8"
           d="m 397.91493,448.32496 c -0.70961,0.15891 -33.33706,27.54065 -53.91198,59.29015 -11.70047,18.05519 -58.65324,-60.38346 -79.96339,-77.92339 -20.89163,-17.19543 -27.23963,-22.05302 -27.23963,-22.05302 0,0 158.07873,-7.5065 161.115,40.68626 z"
           style="fill:#25461c;fill-opacity:1;fill-rule:evenodd;stroke:none;stroke-width:1px;stroke-linecap:butt;stroke-linejoin:miter;stroke-opacity:1" />
        <path
           style="fill:#25461c;fill-opacity:1;fill-rule:evenodd;stroke:none;stroke-width:1px;stroke-linecap:butt;stroke-linejoin:miter;stroke-opacity:1"
           d="m 678.57487,448.52695 c 0.70961,0.15891 33.33706,27.54065 53.91198,59.29015 11.70047,18.05519 58.65324,-60.38346 79.96339,-77.92339 20.89163,-17.19543 27.23963,-22.05302 27.23963,-22.05302 0,0 -158.07873,-7.5065 -161.115,40.68626 z"
           id="path4171-6"
           inkscape:connector-curvature="0"
           sodipodi:nodetypes="csscc" />
        <ellipse
           style="fill:#25461c;fill-opacity:1;stroke:none"
           id="path4197"
           cx="429.08813"
           cy="601.6178"
           rx="28.151943"
           ry="24.839949" />
        <ellipse
           style="fill:#25461c;fill-opacity:1;stroke:none"
           id="path4197-3"
           cx="647.23468"
           cy="601.6178"
           rx="28.151943"
           ry="24.839949" />
        <path
           style="color:#000000;font-style:normal;font-variant:normal;font-weight:normal;font-stretch:normal;font-size:medium;line-height:normal;font-family:sans-serif;text-indent:0;text-align:start;text-decoration:none;text-decoration-line:none;text-decoration-style:solid;text-decoration-color:#000000;letter-spacing:normal;word-spacing:normal;text-transform:none;direction:ltr;block-progression:tb;writing-mode:lr-tb;baseline-shift:baseline;text-anchor:start;white-space:normal;clip-rule:nonzero;display:inline;overflow:visible;visibility:visible;opacity:1;isolation:auto;mix-blend-mode:normal;color-interpolation:sRGB;color-interpolation-filters:linearRGB;solid-color:#000000;solid-opacity:1;fill:#25461c;fill-opacity:1;fill-rule:evenodd;stroke:none;stroke-width:7;stroke-linecap:butt;stroke-linejoin:miter;stroke-miterlimit:4;stroke-dasharray:none;stroke-dashoffset:0;stroke-opacity:1;color-rendering:auto;image-rendering:auto;shape-rendering:auto;text-rendering:auto;enable-background:accumulate"
           d="m 586.97266,652.11147 -0.97071,4.9043 c 14.84476,2.93797 25.85355,8.29151 33.04688,16.00976 -56.60949,36.43013 -109.35862,34.18452 -160.3418,-1.85742 7.1233,-6.18044 17.13301,-10.5684 30.05078,-13.125 l -0.9707,-4.9043 c -15.71967,3.11113 -27.92238,8.92044 -36.06055,17.84766 -8.13816,8.92722 -12.00014,20.88806 -11.3789,35.51953 l 4.99609,-0.21094 c -0.5706,-13.43875 2.78896,-23.71872 9.74219,-31.55468 52.61249,37.52697 108.78242,39.91131 167.13476,2.18554 5.21594,7.37657 7.69108,16.66348 7.19532,28.33985 l 4.99609,0.21289 c 0.62124,-14.63147 -3.24074,-26.59231 -11.37891,-35.51953 -8.13816,-8.92721 -20.34087,-14.73653 -36.06054,-17.84766 z"
           id="path4245"
           inkscape:connector-curvature="0" />
        <path
           style="fill:none;fill-rule:evenodd;stroke:#25461c;stroke-width:7;stroke-linecap:butt;stroke-linejoin:miter;stroke-miterlimit:4;stroke-dasharray:none;stroke-opacity:1"
           d="m 420.92968,503.88817 c 0,0 38.40061,-18.16265 81.81149,-17.55117 43.41089,0.61148 15.58267,0.21136 15.58267,0.21136 l -0.0284,-0.31782"
           id="path4318"
           inkscape:connector-curvature="0" />
        <path
           style="fill:none;fill-rule:evenodd;stroke:#25461c;stroke-width:7;stroke-linecap:butt;stroke-linejoin:miter;stroke-miterlimit:4;stroke-dasharray:none;stroke-opacity:1"
           d="m 444.6106,464.7169 c 0,0 29.86124,-9.65936 63.61858,-9.33415 33.75735,0.3252 12.11746,0.1124 12.11746,0.1124 l -0.0221,-0.16902"
           id="path4318-0"
           inkscape:connector-curvature="0" />
        <path
           inkscape:connector-curvature="0"
           id="path4335-9"
           d="m 468.73481,435.42715 c 0,0 21.13756,-7.06276 45.03302,-6.82497 23.89547,0.23778 8.57746,0.0822 8.57746,0.0822 l -0.0157,-0.12358"
           style="fill:none;fill-rule:evenodd;stroke:#25461c;stroke-width:7;stroke-linecap:butt;stroke-linejoin:miter;stroke-miterlimit:4;stroke-dasharray:none;stroke-opacity:1" />
        <path
           inkscape:connector-curvature="0"
           id="path4361"
           d="m 656.26022,503.88817 c 0,0 -38.40061,-18.16265 -81.81149,-17.55117 -43.41089,0.61148 -15.58267,0.21136 -15.58267,0.21136 l 0.0284,-0.31782"
           style="fill:none;fill-rule:evenodd;stroke:#25461c;stroke-width:7;stroke-linecap:butt;stroke-linejoin:miter;stroke-miterlimit:4;stroke-dasharray:none;stroke-opacity:1" />
        <path
           inkscape:connector-curvature="0"
           id="path4363"
           d="m 632.5793,464.7169 c 0,0 -29.86124,-9.65936 -63.61858,-9.33415 -33.75735,0.3252 -12.11746,0.1124 -12.11746,0.1124 l 0.0221,-0.16902"
           style="fill:none;fill-rule:evenodd;stroke:#25461c;stroke-width:7;stroke-linecap:butt;stroke-linejoin:miter;stroke-miterlimit:4;stroke-dasharray:none;stroke-opacity:1" />
        <path
           style="fill:none;fill-rule:evenodd;stroke:#25461c;stroke-width:7;stroke-linecap:butt;stroke-linejoin:miter;stroke-miterlimit:4;stroke-dasharray:none;stroke-opacity:1"
           d="m 608.45509,435.42715 c 0,0 -21.13756,-7.06276 -45.03302,-6.82497 -23.89547,0.23778 -8.57746,0.0822 -8.57746,0.0822 l 0.0157,-0.12358"
           id="path4365"
           inkscape:connector-curvature="0" />
      </g>
      <g
         transform="translate(-69.819356,18)"
         id="g4401">
        <text
           xml:space="preserve"
           style="font-style:normal;font-variant:normal;font-weight:bold;font-stretch:normal;font-size:110.34683228px;line-height:125%;font-family:sans-serif;-inkscape-font-specification:'sans-serif, Bold';text-align:start;letter-spacing:0px;word-spacing:0px;writing-mode:lr-tb;text-anchor:start;fill:#8c4f27;fill-opacity:1;stroke:none;stroke-width:1px;stroke-linecap:butt;stroke-linejoin:miter;stroke-opacity:1;"
           x="407.43277"
           y="829.2309"
           id="text4389"
           sodipodi:linespacing="125%"><tspan
             sodipodi:role="line"
             id="tspan4399"
             x="407.43277"
             y="829.2309">JD</tspan></text>
        <text
           sodipodi:linespacing="125%"
           id="text4393"
           y="849.75934"
           x="536.11578"
           style="font-style:normal;font-variant:normal;font-weight:bold;font-stretch:normal;font-size:110.34683228px;line-height:125%;font-family:sans-serif;-inkscape-font-specification:'sans-serif, Bold';text-align:start;letter-spacing:0px;word-spacing:0px;writing-mode:lr-tb;text-anchor:start;fill:#000000;fill-opacity:1;stroke:none;stroke-width:1px;stroke-linecap:butt;stroke-linejoin:miter;stroke-opacity:1"
           xml:space="preserve"><tspan
             sodipodi:role="line"
             id="tspan4397"
             x="536.11578"
             y="849.75934">Utils</tspan></text>
      </g>
    </g>
  </g>
</svg>
